<?xml version="1.0" standalone="no"?>
<!DOCTYPE svg PUBLIC "-//W3C//DTD SVG 20010904//EN"
 "http://www.w3.org/TR/2001/REC-SVG-20010904/DTD/svg10.dtd">
<svg version="1.0" xmlns="http://www.w3.org/2000/svg"
 width="700.000000pt" height="700.000000pt" viewBox="0 0 700.000000 700.000000"
 preserveAspectRatio="xMidYMid meet">
<metadata>
Created by potrace 1.14, written by Peter Selinger 2001-2017
</metadata>
<g transform="translate(0.000000,700.000000) scale(0.100000,-0.100000)"
fill="#000000" stroke="none">
<path d="M1450 6993 c-328 -55 -595 -277 -702 -583 -48 -136 -47 -119 -48
-1434 0 -682 -1 -1240 -3 -1242 -1 -1 -29 -4 -62 -7 -33 -4 -70 -9 -83 -12
-12 -3 -30 -7 -40 -9 -9 -2 -37 -12 -62 -22 -220 -87 -369 -259 -430 -492 -19
-75 -19 -111 -19 -1252 l1 -1175 24 -94 c80 -318 307 -550 629 -643 l80 -23
2765 0 2765 0 79 23 c238 69 410 201 543 417 28 44 77 169 88 220 2 11 8 43
14 70 7 33 9 460 8 1235 -2 1114 -4 1189 -21 1245 -66 220 -218 387 -421 466
-80 31 -103 37 -192 46 l-63 6 -1 1216 c0 669 -2 1237 -4 1264 -8 125 -83 322
-160 424 -81 107 -216 225 -300 262 -11 5 -41 18 -65 30 -25 11 -79 30 -120
43 l-75 23 -2050 1 c-1127 1 -2061 -1 -2075 -3z"/>
</g>
</svg>
